<?xml version="1.0" encoding="UTF-8"?>
<svg id="Layer_2" data-name="Layer 2" xmlns="http://www.w3.org/2000/svg" xmlns:xlink="http://www.w3.org/1999/xlink" viewBox="0 0 300 300">
  <defs>
    <style>
      .cls-1 {
        fill: #333b49;
      }

      .cls-1, .cls-2, .cls-3 {
        stroke-width: 0px;
      }

      .cls-2 {
        fill: none;
      }

      .cls-3 {
        fill: #ebf0f9;
      }

      .cls-4 {
        clip-path: url(#clippath);
      }
    </style>
    <clipPath id="clippath">
      <rect class="cls-2" x="74.51" y="73.01" width="150.99" height="153.98"/>
    </clipPath>
  </defs>
  <g id="PADRÃO_BRANCO" data-name="PADRÃO BRANCO">
    <g>
      <rect class="cls-2" width="300" height="300"/>
      <rect class="cls-1" x="37.51" y="37.51" width="224.99" height="224.99" rx="71.43" ry="71.43"/>
      <g class="cls-4">
        <path class="cls-3" d="M74.51,149.78c0-12.44,1.9-23.44,5.71-33,3.97-9.57,9.28-17.54,15.94-23.92,6.82-6.54,14.75-11.48,23.79-14.83,9.2-3.35,19.11-5.02,29.74-5.02s20.46,1.67,29.5,5.02c9.2,3.35,17.21,8.29,24.03,14.83,6.82,6.38,12.13,14.35,15.94,23.92,3.97,9.57,5.95,20.57,5.95,33s-1.9,23.52-5.71,33.24c-3.81,9.57-9.12,17.62-15.94,24.16-6.66,6.38-14.59,11.24-23.79,14.59-9.2,3.35-19.19,5.02-29.98,5.02s-20.78-1.67-29.98-5.02c-9.2-3.51-17.13-8.53-23.79-15.07-6.66-6.54-11.9-14.59-15.7-24.16-3.81-9.57-5.71-20.49-5.71-32.77ZM117.33,149.78h64.95c0-14.35-2.93-25.11-8.8-32.29-5.71-7.17-13.56-10.76-23.55-10.76s-17.77,3.59-23.79,10.76c-5.87,7.02-8.8,17.78-8.8,32.29Z"/>
      </g>
    </g>
  </g>
</svg>