<?xml version="1.0" encoding="UTF-8"?>
<svg id="Layer_2" data-name="Layer 2" xmlns="http://www.w3.org/2000/svg" xmlns:xlink="http://www.w3.org/1999/xlink" viewBox="0 0 300 300">
  <defs>
    <style>
      .cls-1 {
        fill: none;
      }

      .cls-1, .cls-2 {
        stroke-width: 0px;
      }

      .cls-2 {
        fill: #ebf0f9;
      }

      .cls-3 {
        clip-path: url(#clippath);
      }
    </style>
    <clipPath id="clippath">
      <rect class="cls-1" x="39.49" y="37.31" width="221.01" height="225.39"/>
    </clipPath>
  </defs>
  <g id="PADRÃO_BRANCO" data-name="PADRÃO BRANCO">
    <g>
      <rect class="cls-1" width="300" height="300"/>
      <g class="cls-3">
        <path class="cls-2" d="M39.49,149.68c0-18.2,2.79-34.31,8.36-48.31,5.8-14,13.58-25.67,23.33-35.01,9.98-9.57,21.59-16.8,34.83-21.7,13.47-4.9,27.98-7.35,43.53-7.35s29.95,2.45,43.18,7.35c13.47,4.9,25.19,12.14,35.17,21.7,9.98,9.34,17.76,21,23.33,35.01,5.8,14,8.71,30.11,8.71,48.31s-2.79,34.42-8.36,48.66c-5.57,14-13.35,25.79-23.33,35.36-9.75,9.34-21.36,16.45-34.83,21.35-13.47,4.9-28.09,7.35-43.88,7.35s-30.41-2.45-43.88-7.35c-13.47-5.13-25.07-12.49-34.83-22.05-9.75-9.57-17.41-21.35-22.99-35.36-5.57-14-8.36-29.99-8.36-47.96ZM102.18,149.68h95.08c0-21-4.3-36.76-12.89-47.26-8.36-10.5-19.85-15.75-34.48-15.75s-26,5.25-34.83,15.75c-8.59,10.27-12.89,26.02-12.89,47.26Z"/>
      </g>
    </g>
  </g>
</svg>